<?xml version="1.0" encoding="UTF-8"?>
<svg id="Layer_1" data-name="Layer 1" xmlns="http://www.w3.org/2000/svg" viewBox="0 0 307.29 112.47">
  <path d="m135.03,13.89v16.6c1.61-1.24,3.62-1.97,5.8-1.97,1.7,0,3.3.45,4.68,1.23v-6.19l151.29-12.2v89.75l-151.29-12.2v-7.31c-1.38.78-2.98,1.23-4.68,1.23-2.18,0-4.2-.73-5.8-1.97v17.73l172.26,13.89V0l-172.26,13.89Z"/>
  <g>
    <path d="m16.35,75.64c-3.37,0-6.28-.6-8.73-1.8-2.45-1.2-4.33-2.88-5.65-5.06-1.31-2.17-1.97-4.72-1.97-7.64s.63-5.35,1.88-7.53c1.25-2.17,2.98-3.88,5.17-5.11,2.19-1.24,4.69-1.85,7.5-1.85,2.06,0,3.93.34,5.62,1.01,1.69.67,3.12,1.64,4.3,2.89,1.18,1.26,2.09,2.76,2.72,4.52.64,1.76.96,3.75.96,5.95,0,.71-.21,1.25-.62,1.63-.41.38-1.05.56-1.91.56H8.37v-4.77h12.42l-.84.73c0-1.38-.19-2.52-.56-3.4-.38-.88-.93-1.54-1.66-1.97-.73-.43-1.64-.65-2.72-.65-1.16,0-2.17.27-3.03.81-.86.54-1.51,1.34-1.94,2.39-.43,1.05-.65,2.36-.65,3.93v.45c0,2.7.59,4.61,1.77,5.73,1.18,1.12,3,1.69,5.48,1.69.82,0,1.77-.09,2.84-.28,1.07-.19,2.09-.47,3.06-.84.97-.37,1.82-.44,2.53-.2.71.24,1.26.65,1.66,1.21s.62,1.23.67,1.99c.06.77-.11,1.49-.5,2.16-.39.67-1.04,1.2-1.94,1.57-1.27.6-2.65,1.06-4.13,1.38-1.48.32-2.97.48-4.47.48Z"/>
    <path d="m36.57,63.74c-1.09,0-2.02-.37-2.81-1.1-.79-.73-1.18-1.66-1.18-2.78s.39-2.05,1.18-2.78c.79-.73,1.72-1.1,2.81-1.1h11.12c1.12,0,2.06.37,2.81,1.1.75.73,1.12,1.66,1.12,2.78s-.37,2.05-1.12,2.78c-.75.73-1.69,1.1-2.81,1.1h-11.12Z"/>
    <path d="m63.64,74.97c-1.76,0-3.1-.46-4.02-1.38-.92-.92-1.38-2.26-1.38-4.02v-28.82c0-1.76.46-3.1,1.38-4.02.92-.92,2.26-1.38,4.02-1.38h10.95c6.89,0,12.22,1.72,15.98,5.17,3.76,3.45,5.65,8.31,5.65,14.6,0,3.18-.48,5.99-1.43,8.43-.95,2.43-2.35,4.5-4.18,6.21-1.83,1.71-4.09,3-6.77,3.88-2.68.88-5.76,1.32-9.24,1.32h-10.95Zm4.94-8.37h5.39c1.98,0,3.7-.24,5.14-.73,1.44-.49,2.64-1.2,3.59-2.13.96-.94,1.67-2.12,2.13-3.54.47-1.42.7-3.11.7-5.06,0-3.86-.96-6.72-2.86-8.59-1.91-1.87-4.81-2.81-8.71-2.81h-5.39v22.86Z"/>
    <path d="m112.06,75.64c-2.4,0-4.36-.44-5.9-1.32-1.54-.88-2.69-2.21-3.45-3.99-.77-1.78-1.15-4-1.15-6.66v-11.85c0-1.61.43-2.86,1.29-3.74.86-.88,2.1-1.32,3.71-1.32s2.8.44,3.68,1.32c.88.88,1.32,2.13,1.32,3.74v12.08c0,1.35.28,2.36.84,3.03.56.67,1.44,1.01,2.64,1.01,1.35,0,2.46-.49,3.34-1.46.88-.97,1.32-2.26,1.32-3.88v-10.79c0-1.61.42-2.86,1.26-3.74.84-.88,2.07-1.32,3.68-1.32s2.85.44,3.74,1.32c.88.88,1.32,2.13,1.32,3.74v18.65c0,3.37-1.63,5.06-4.89,5.06-1.57,0-2.79-.44-3.65-1.32-.86-.88-1.29-2.12-1.29-3.74v-3.31l.9,2.75c-.82,1.83-1.98,3.25-3.46,4.24s-3.23,1.49-5.25,1.49Z"/>
    <path d="m140.43,75.53c-1.65,0-2.89-.44-3.74-1.32-.84-.88-1.26-2.12-1.26-3.74v-30.61c0-1.61.42-2.86,1.26-3.74.84-.88,2.09-1.32,3.74-1.32s2.8.44,3.68,1.32c.88.88,1.32,2.13,1.32,3.74v18.54h.11l6.85-8.26c.94-1.12,1.81-1.97,2.61-2.53.8-.56,1.9-.84,3.29-.84s2.45.35,3.2,1.04c.75.69,1.14,1.54,1.18,2.56.04,1.01-.36,2.04-1.18,3.09l-7.42,8.76v-3.54l8.26,10.45c.82,1.05,1.16,2.07,1.01,3.06-.15.99-.63,1.8-1.43,2.42-.81.62-1.83.93-3.06.93-1.5,0-2.7-.27-3.59-.81-.9-.54-1.78-1.41-2.64-2.61l-7.08-8.65h-.11v7.02c0,3.37-1.67,5.06-5,5.06Z"/>
    <path d="m177.62,75.64c-2.13,0-4.03-.4-5.67-1.21-1.65-.81-2.93-1.89-3.85-3.26-.92-1.37-1.38-2.93-1.38-4.69,0-2.02.52-3.61,1.57-4.77,1.05-1.16,2.74-1.99,5.08-2.5,2.34-.51,5.44-.76,9.3-.76h3.09v4.66h-3.09c-1.46,0-2.66.11-3.59.34-.94.23-1.63.54-2.08.96-.45.41-.67.97-.67,1.69,0,.86.3,1.57.9,2.13.6.56,1.5.84,2.7.84.9,0,1.71-.21,2.44-.62.73-.41,1.32-.98,1.77-1.71.45-.73.67-1.58.67-2.56v-6.52c0-1.39-.35-2.35-1.04-2.89-.69-.54-1.86-.81-3.51-.81-.94,0-1.96.1-3.06.31-1.11.21-2.37.57-3.79,1.1-1.01.38-1.88.43-2.61.17-.73-.26-1.27-.7-1.63-1.32-.36-.62-.53-1.3-.53-2.05s.23-1.48.7-2.19c.47-.71,1.19-1.24,2.16-1.57,1.8-.64,3.46-1.09,5-1.35,1.54-.26,2.92-.39,4.16-.39,3.07,0,5.61.45,7.61,1.35s3.5,2.26,4.49,4.07c.99,1.82,1.49,4.15,1.49,6.99v11.4c0,1.61-.4,2.86-1.21,3.74-.81.88-1.94,1.32-3.4,1.32-1.54,0-2.71-.44-3.51-1.32-.81-.88-1.21-2.12-1.21-3.74v-1.52l.34.79c-.19,1.16-.62,2.18-1.29,3.06-.67.88-1.55,1.57-2.64,2.08-1.09.5-2.32.76-3.71.76Z"/>
    <path d="m210.7,75.64c-2.36,0-4.45-.59-6.26-1.77-1.82-1.18-3.24-2.85-4.27-5.03-1.03-2.17-1.54-4.74-1.54-7.7s.51-5.62,1.52-7.75c1.01-2.13,2.42-3.79,4.24-4.97s3.92-1.77,6.32-1.77c2.06,0,3.91.5,5.56,1.49,1.65.99,2.77,2.26,3.37,3.79h-.67v-12.08c0-1.61.43-2.86,1.29-3.74.86-.88,2.1-1.32,3.71-1.32s2.85.44,3.71,1.32c.86.88,1.29,2.13,1.29,3.74v30.61c0,1.61-.42,2.86-1.26,3.74-.84.88-2.07,1.32-3.68,1.32s-2.79-.44-3.65-1.32c-.86-.88-1.29-2.12-1.29-3.74v-3.31l.62,2.81c-.49,1.68-1.57,3.05-3.26,4.1-1.68,1.05-3.59,1.57-5.73,1.57Zm3.2-7.47c1.01,0,1.9-.23,2.67-.7.77-.47,1.38-1.23,1.83-2.28.45-1.05.67-2.4.67-4.04,0-2.51-.49-4.32-1.46-5.42-.97-1.1-2.21-1.66-3.71-1.66-1.01,0-1.91.24-2.7.73-.79.49-1.4,1.25-1.85,2.27-.45,1.03-.67,2.39-.67,4.07,0,2.47.49,4.26,1.46,5.36.97,1.11,2.23,1.66,3.76,1.66Z"/>
    <path d="m248.79,75.64c-3.07,0-5.75-.58-8.03-1.74s-4.06-2.84-5.34-5.03c-1.27-2.19-1.91-4.76-1.91-7.72,0-2.25.36-4.26,1.07-6.04.71-1.78,1.74-3.3,3.09-4.58,1.35-1.27,2.96-2.24,4.83-2.89,1.87-.65,3.97-.98,6.29-.98,3.07,0,5.75.58,8.03,1.74,2.28,1.16,4.05,2.83,5.31,5,1.25,2.17,1.88,4.76,1.88,7.75,0,2.25-.36,4.25-1.07,6.01-.71,1.76-1.74,3.29-3.09,4.58-1.35,1.29-2.96,2.27-4.83,2.92-1.87.65-3.95.98-6.24.98Zm0-7.47c1.01,0,1.9-.23,2.67-.7.77-.47,1.38-1.23,1.83-2.28.45-1.05.67-2.4.67-4.04,0-2.51-.49-4.32-1.46-5.42-.97-1.1-2.21-1.66-3.71-1.66-1.01,0-1.91.24-2.7.73-.79.49-1.4,1.25-1.85,2.27-.45,1.03-.67,2.39-.67,4.07,0,2.47.49,4.26,1.46,5.36.97,1.11,2.23,1.66,3.76,1.66Z"/>
  </g>
</svg>